<svg xmlns="http://www.w3.org/2000/svg" xmlns:ns1="http://www.inkscape.org/namespaces/inkscape" version="1.1" width="347.2835" height="195" viewBox="0 0 347.2835 195">
<defs>
<clipPath id="clip_1">
<path transform="matrix(1,0,0,-1,-143.43299,355.67604)" d="M143.433 160.67603H490.7165V355.67604H143.433Z" />
</clipPath>
<clipPath id="clip_2">
<path transform="matrix(1,0,0,-1,-143.43299,355.67604)" d="M0 0H595.32V841.92H0Z" />
</clipPath>
<clipPath id="clip_3">
<path transform="matrix(1,0,0,-1,-143.43299,355.67604)" d="M120.48 117.96H439.44V134.88H120.48Z" />
</clipPath>
<clipPath id="clip_4">
<path transform="matrix(1,0,0,-1,-143.43299,355.67604)" d="M439.44 117.96H474.84V134.88H439.44Z" />
</clipPath>
<clipPath id="clip_5">
<path transform="matrix(1,0,0,-1,-143.43299,355.67604)" d="M439.44 117.96H474.84V134.88H439.44Z" />
</clipPath>
<clipPath id="clip_6">
<path transform="matrix(1,0,0,-1,-143.43299,355.67604)" d="M0 0H595.32V841.92H0Z" />
</clipPath>
<clipPath id="clip_7">
<path transform="matrix(1,0,0,-1,-143.43299,355.67604)" d="M494.88 651.36H556.31906V668.51998H494.88Z" />
</clipPath>
<clipPath id="clip_8">
<path transform="matrix(1,0,0,-1,-143.43299,355.67604)" d="M494.88 651.36H556.31906V668.51998H494.88Z" />
</clipPath>
<clipPath id="clip_9">
<path transform="matrix(1,0,0,-1,-143.43299,355.67604)" d="M0 0H595.32V841.92H0Z" />
</clipPath>
<clipPath id="clip_10">
<path transform="matrix(1,0,0,-1,-143.43299,355.67604)" d="M120.48 202.68H474.84V360.59999H120.48Z" />
</clipPath>
<clipPath id="clip_11">
<path transform="matrix(1,0,0,-1,-143.43299,355.67604)" d="M120.48 190.08H474.84V202.68001H120.48Z" />
</clipPath>
<clipPath id="clip_12">
<path transform="matrix(1,0,0,-1,-143.43299,355.67604)" d="M120.48 190.08H474.84V202.68001H120.48Z" />
</clipPath>
<clipPath id="clip_13">
<path transform="matrix(1,0,0,-1,-143.43299,355.67604)" d="M151.652 217.7H284.896V341.32099H151.652Z" />
</clipPath>
<clipPath id="clip_14">
<path transform="matrix(1,0,0,-1,-143.43299,355.67604)" d="M120.625 203.641H474.771V355.48H120.625Z" />
</clipPath>
<clipPath id="clip_15">
<path transform="matrix(1,0,0,-1,-143.43299,355.67604)" d="M120.625 203.641H474.771V355.48H120.625Z" />
</clipPath>
<clipPath id="clip_16">
<path transform="matrix(1,0,0,-1,-143.43299,355.67604)" d="M120.625 203.641H474.771V355.48H120.625Z" />
</clipPath>
<clipPath id="clip_17">
<path transform="matrix(1,0,0,-1,-143.43299,355.67604)" d="M120.625 203.641H474.771V355.48H120.625Z" />
</clipPath>
<clipPath id="clip_18">
<path transform="matrix(1,0,0,-1,-143.43299,355.67604)" d="M120.625 203.641H474.771V355.48H120.625Z" />
</clipPath>
<clipPath id="clip_19">
<path transform="matrix(1,0,0,-1,-143.43299,355.67604)" d="M120.625 203.641H474.771V355.48H120.625Z" />
</clipPath>
<clipPath id="clip_20">
<path transform="matrix(1,0,0,-1,-143.43299,355.67604)" d="M120.625 203.641H474.771V355.48H120.625Z" />
</clipPath>
<clipPath id="clip_21">
<path transform="matrix(1,0,0,-1,-143.43299,355.67604)" d="M152.255 339.815H278.772V355.48H152.255Z" />
</clipPath>
<clipPath id="clip_22">
<path transform="matrix(1,0,0,-1,-143.43299,355.67604)" d="M120.625 203.641H474.771V355.48H120.625Z" />
</clipPath>
<clipPath id="clip_23">
<path transform="matrix(1,0,0,-1,-143.43299,355.67604)" d="M339.017 218.002H461.41603V341.322H339.017Z" />
</clipPath>
<clipPath id="clip_24">
<path transform="matrix(1,0,0,-1,-143.43299,355.67604)" d="M281.582 203.641H474.772V355.48H281.582Z" />
</clipPath>
<clipPath id="clip_25">
<path transform="matrix(1,0,0,-1,-143.43299,355.67604)" d="M281.582 203.641H474.772V355.48H281.582Z" />
</clipPath>
<clipPath id="clip_26">
<path transform="matrix(1,0,0,-1,-143.43299,355.67604)" d="M281.582 203.641H474.772V355.48H281.582Z" />
</clipPath>
<clipPath id="clip_27">
<path transform="matrix(1,0,0,-1,-143.43299,355.67604)" d="M281.582 203.641H474.772V355.48H281.582Z" />
</clipPath>
<clipPath id="clip_28">
<path transform="matrix(1,0,0,-1,-143.43299,355.67604)" d="M281.582 203.641H474.772V355.48H281.582Z" />
</clipPath>
<clipPath id="clip_29">
<path transform="matrix(1,0,0,-1,-143.43299,355.67604)" d="M281.582 203.641H474.772V355.48H281.582Z" />
</clipPath>
<clipPath id="clip_30">
<path transform="matrix(1,0,0,-1,-143.43299,355.67604)" d="M281.582 203.641H474.772V355.48H281.582Z" />
</clipPath>
<clipPath id="clip_31">
<path transform="matrix(1,0,0,-1,-143.43299,355.67604)" d="M281.582 203.641H474.772V355.48H281.582Z" />
</clipPath>
<clipPath id="clip_32">
<path transform="matrix(1,0,0,-1,-143.43299,355.67604)" d="M289.314 285.586H300.359V342.928H289.314Z" />
</clipPath>
<clipPath id="clip_33">
<path transform="matrix(1,0,0,-1,-143.43299,355.67604)" d="M120.625 203.641H474.771V355.48103H120.625Z" />
</clipPath>
<clipPath id="clip_34">
<path transform="matrix(1,0,0,-1,-143.43299,355.67604)" d="M195.029 272.029H235.19301V289.201H195.029Z" />
</clipPath>
<clipPath id="clip_35">
<path transform="matrix(1,0,0,-1,-143.43299,355.67604)" d="M195.029 272.029H235.19301V289.201H195.029Z" />
</clipPath>
<clipPath id="clip_36">
<path transform="matrix(1,0,0,-1,-143.43299,355.67604)" d="M120.625 203.641H474.771V355.48103H120.625Z" />
</clipPath>
<clipPath id="clip_37">
<path transform="matrix(1,0,0,-1,-143.43299,355.67604)" d="M351.468 272.33H446.95799V289.503H351.468Z" />
</clipPath>
<clipPath id="clip_38">
<path transform="matrix(0,-1,-1,-0,-39.9144,232.36304)" d="M0-6H43.017V.600037H0Z" />
</clipPath>
</defs>
<g clip-path="url(#clip_1)">
<g clip-path="url(#clip_2)">
<path transform="matrix(1,0,0,-1,-143.43299,355.67604)" d="M120.48 117.96H439.44V134.88H120.48Z" fill="#ffffff" fill-rule="evenodd" />
<path transform="matrix(1,0,0,-1,-143.43299,355.67604)" d="M120.48 121.92H439.44V134.88H120.48Z" fill="#ffffff" />
<g clip-path="url(#clip_3)">
<text fill="#2c95ab" xml:space="preserve" transform="matrix(1 0 -0 1 -143.43299 355.67604)" font-size="8.52" font-family="IXUSPS+CenturyGothic-Bold" font-weight="bold"><tspan y="-123.84" x="120.48 127.0796 132.24016 137.8804 143.52065 146.04087 151.44083 154.20131">Chapter </tspan></text>
</g>
<text fill="#2c95ab" xml:space="preserve" transform="matrix(1 0 -0 1 -143.43299 355.67604)" font-size="8.52" font-family="IXUSPS+CenturyGothic-Bold" font-weight="bold"><tspan y="-123.84" x="156.6">1</tspan></text>
<text xml:space="preserve" transform="matrix(1 0 -0 1 -143.43299 355.67604)" font-size="8.52" font-family="YDUFAM+ArialMT"><tspan y="-123.84" x="161.27748"> </tspan></text>
<text xml:space="preserve" transform="matrix(1 0 -0 1 -143.43299 355.67604)" font-size="8.52" font-family="FQGAZY+CenturyGothic"><tspan y="-123.84" x="166.07425">|</tspan></text>
<text xml:space="preserve" transform="matrix(1 0 -0 1 -143.43299 355.67604)" font-size="8.52" font-family="FQGAZY+CenturyGothic"><tspan y="-123.84" x="176.51126 180.11096 185.27153 190.7925 193.19515 195.71537 197.39551 200.7558 206.27677 208.55673 214.19698 216.83731 219.23996 225.59929 227.39957 229.80222 235.68187 240.7223 246.60196 248.88193 250.6822 253.56197 256.80213 259.20475 264.36445 269.8854 273.96565 279.12876 282.48905 284.89167 291.8508 293.65107 296.53083 301.6914 304.09403 309.615 314.77558 320.29655 322.81593 328.5763 332.98957">The rise of AI and its nexus with energy </tspan></text>
<g clip-path="url(#clip_4)">
<text xml:space="preserve" transform="matrix(1 0 -0 1 -143.43299 355.67604)" font-size="8.52" font-family="IXUSPS+CenturyGothic-Bold" font-weight="bold"><tspan y="-123.84" x="465.36 470.15675">21</tspan></text>
</g>
<g clip-path="url(#clip_5)">
<text xml:space="preserve" transform="matrix(1 0 -0 1 -143.43299 355.67604)" font-size="8.52" font-family="IXUSPS+CenturyGothic-Bold" font-weight="bold"><tspan y="-123.84" x="474.84"> </tspan></text>
</g>
<path transform="matrix(1,0,0,-1,405.9171,-390.99446)" stroke-width=".5" stroke-linecap="butt" stroke-linejoin="round" fill="none" stroke="#000000" d="M0 0H-11.298" />
<path transform="matrix(1,0,0,-1,-86.78468,-390.99446)" stroke-width=".5" stroke-linecap="butt" stroke-linejoin="round" fill="none" stroke="#000000" d="M0 0H-11.298" />
<path transform="matrix(1,0,0,-1,-72.37258,-417.64387)" stroke-width=".5" stroke-linecap="butt" stroke-linejoin="round" fill="none" stroke="#000000" d="M0 0V-11.3" />
<path transform="matrix(1,0,0,-1,381.0625,-417.64387)" stroke-width=".5" stroke-linecap="butt" stroke-linejoin="round" fill="none" stroke="#000000" d="M0 0V-11.3" />
<path transform="matrix(1,0,0,-1,405.9171,260.74754)" stroke-width=".5" stroke-linecap="butt" stroke-linejoin="round" fill="none" stroke="#000000" d="M0 0H-11.298" />
<path transform="matrix(1,0,0,-1,-86.78468,260.74754)" stroke-width=".5" stroke-linecap="butt" stroke-linejoin="round" fill="none" stroke="#000000" d="M0 0H-11.298" />
<path transform="matrix(1,0,0,-1,-72.37258,274.30613)" stroke-width=".5" stroke-linecap="butt" stroke-linejoin="round" fill="none" stroke="#000000" d="M0 0V-11.3" />
<path transform="matrix(1,0,0,-1,381.0625,274.30613)" stroke-width=".5" stroke-linecap="butt" stroke-linejoin="round" fill="none" stroke="#000000" d="M0 0V-11.3" />
<g clip-path="url(#clip_6)">
<path transform="matrix(1,0,0,-1,349.31703,-307.64308)" d="M0 0C0 4.06 3.291 7.351 7.351 7.351H58.399C62.459 7.351 65.75 4.06 65.75 0V-6.798C65.75-10.858 62.459-14.149 58.399-14.149H7.351C3.291-14.149 0-10.858 0-6.798Z" fill="#2c95ab" fill-rule="evenodd" />
</g>
<g clip-path="url(#clip_7)">
<text fill="#ffffff" xml:space="preserve" transform="matrix(1 0 -0 1 -143.43299 355.67604)" font-size="14.04" font-family="QJVOXC+Calibri"><tspan y="-655.2" x="502.08">1</tspan></text>
</g>
<g clip-path="url(#clip_8)">
<text fill="#ffffff" xml:space="preserve" transform="matrix(1 0 -0 1 -143.43299 355.67604)" font-size="14.04" font-family="QJVOXC+Calibri"><tspan y="-655.2" x="509.16"> </tspan></text>
</g>
<text fill="#2c95ab" xml:space="preserve" transform="matrix(1 0 -0 1 -143.43299 355.67604)" font-size="14.04" font-family="XEFZMO+Calibri-Bold" font-weight="bold"><tspan y="-686.88" x="120.48 127.55616 131.27536">1.2</tspan></text>
<text fill="#2c95ab" xml:space="preserve" transform="matrix(1 0 -0 1 -143.43299 355.67604)" font-size="14.04" font-family="OYEPDB+Arial-BoldMT" font-weight="bold"><tspan y="-686.88" x="138.35152"> </tspan></text>
<text fill="#2c95ab" xml:space="preserve" transform="matrix(1 0 -0 1 -143.43299 355.67604)" font-size="14.04" font-family="XEFZMO+Calibri-Bold" font-weight="bold"><tspan y="-686.88" x="156.47856 163.4424 170.99591 178.07207 181.18894 186.22789 189.58766 195.22753 202.30368 205.42055 212.9811 217.42055 220.53742 229.0597 232.67365">The rise of AI </tspan></text>
<text xml:space="preserve" transform="matrix(1 0 -0 1 -143.43299 355.67604)" font-size="9.48" font-family="QJVOXC+Calibri"><tspan y="-663.96" x="120.48 126.000209 128.39865 131.39434 136.4339 140.99378 144.70993 147.70561 152.26549 155.26117 157.42166 162.46123 167.5008 171.94123 174.9369 179.97742 182.13697 185.85312 189.09337 194.13295 197.49266 201.8127 204.21305 207.20873 212.12885 216.68872 219.92897 222.08852 227.12808 231.56851 234.5642 239.48432 244.04419 248.00399 252.32686 255.32254 258.56187 263.60237 266.59803 271.15794 274.3982 277.39387 279.55436 284.2337 288.7936 292.50978 295.75004 298.7457 301.98503 307.0246 311.7049 314.70057 319.50028 324.3 329.0997 333.8994 337.61558 340.014 343.13386 349.3736 353.69364 358.37394 361.73365 364.7293 367.96864 370.12818 377.68846 382.36875 384.76814 387.7638 389.92335 393.1636 396.15928 401.1998 405.75968 409.47584 412.4715 416.18766 420.86796 425.5473 430.58784 433.5835 438.2638 441.25947 444.97563 449.6559 453.01564 455.17613 459.85548 463.6958 466.69148 471.73197 474.73146">AI has a long history, dating back to at least the 1950s. Over time, it has seen a series of </tspan><tspan y="-651.23788" x="120.48 125.03989 127.20038 130.4397 135.11998 138.47969 143.5202 148.08008 151.32035 153.36045 158.40001 162.84044 166.5566 171.59616 176.27645 179.6371 181.79665 186.83621 191.87673 195.59668 199.31284 204.35335 207.23337 210.94953 215.98909 220.90921 224.14948 226.30902 233.86931 236.0298 239.74976 247.3091 251.02526 255.58513 260.62565 265.66615 269.38233 274.42189 279.10215 282.82209 286.54203 288.7025 296.26188 298.42237 302.1423 309.7026 313.41877 316.2988 320.01875 325.07737 327.9593 331.9191 336.47898 338.75895 340.91944 345.5997 350.63926 354.3554 358.4356 363.9558 366.35615 370.07234 376.9074 379.06697 384.10746 387.34773 392.02705 395.3877 399.10765 403.06745 405.94749 408.3478 412.06398 414.46336 419.50386 423.22004 426.57975 431.26 435.21983 439.9001 444.94059 448.17988 451.89607 456.2161 460.89637 465.45625 468.8169 472.53684 474.81678">alternating periods of optimism and pessimism (so-called “AI winters”). In recent years, </tspan><tspan y="-638.5157" x="120.48003 125.5196 130.5601 137.39519 142.07547 146.39551 151.07579 154.4355 156.83583 159.35752 164.87773 167.27713 169.79882 174.83838 179.39826 183.11916 185.64084 190.6804 195.36069 200.04097 205.08054 207.60222 212.52138 215.88204 220.44191 228.0022 232.56208 235.80234 237.96189 241.92169 246.48252 248.64206 250.80255 255.12165 257.64335 262.6829 267.7234 272.76295 276.48289 279.72315 284.4034 289.44297 291.96467 297.0042 301.32426 303.84596 307.56684 312.24617 316.5662 321.24647 324.60618 329.16703 331.32658 333.84828 338.88877 343.56904 347.88908 352.5684 354.72889 359.76844 364.68855 372.24885 376.9291 381.96867 385.20893 388.92887 391.45057 396.01045 401.05094 406.09049 408.61219 413.65174 417.01145 421.6917 426.24119 430.4408 433.68107 438.72157 441.96086 447.00135 452.0409 456.48133 461.52088 465.2408 467.7625 469.92207 474.84217">however, AI has been dramatically boosted by several developments and breakthroughs in </tspan><tspan y="-625.7935" x="120.48003 123.72029 128.39963 132.36038 137.39995 142.44046 144.6 149.64052 154.68009 159.36037 163.08032 165.48065 168.00234 171.96215 177.00266 180.60222 183.84249 187.56244 190.08412 194.64495 199.5641 204.60462 207.00496 210.24428 214.92456 218.88437 223.92488 228.96445 234.00496 236.1645 241.08463 245.52506 249.8451 252.36678 255.60704 260.6466 265.08705 268.3273 270.849 275.7691 280.3223 284.64518 289.31883 291.84049 294.00099 298.6803 303.7208 306.2425 309.36235 314.40284 316.80226 320.0425 325.083 329.76234 332.28404 335.64375 337.80329 341.52418 346.2035 348.7252 353.76475 356.5253 358.9247 364.44493 366.84526 369.36695 371.52745 376.567 379.08869 381.12879 384.36906 388.089 390.6107 398.171 403.2115 408.25105 412.9313 416.17158 421.21113 423.73283 426.61283 431.53294 434.8936 442.45295 444.97465 448.09449 453.13404 457.6949 460.81474 463.33644 470.1715 474.85179">techniques, costs and technology that have led to the rise of AI in its modern form that we </tspan><tspan y="-613.07138" x="120.48001 125.039897 128.3996 133.07988 135.11808 137.9981 142.55797 150.11826 152.2778 154.4383 156.59879 161.15866 164.51837 166.55657 173.39165 175.55214 178.7924 183.83197 185.75167 188.99193 194.03244 199.072 203.63188 207.83248 210.23186 212.27005 214.43054 219.47011 221.3898 226.43032 230.99019 234.3499 237.59017 239.63027 243.59008 248.63059 250.79108 255.35095 258.71067 260.74888 265.18836 269.86863 274.90913 279.58845 282.9491 287.50898 290.74925 292.90879 297.22883 301.9091 303.9473 309.4675 311.86689 314.2672 316.30543 320.8653 325.9058 330.5851 334.30506 338.98533 341.02354 346.06404 350.74336 355.0634 359.74366 361.90415 366.9437 371.9842 379.54356 384.22383 389.2643 392.5036 396.22355 398.26176 400.42225 405.4618 409.4216 411.5821 416.6226 421.66215 426.36167 428.39988">are familiar with today, in particular generative AI. These developments include (</tspan></text>
<text xml:space="preserve" transform="matrix(1 0 -0 1 -143.43299 355.67604)" font-size="9.48" font-family="QJVOXC+Calibri"><tspan y="-613.07138" x="431.28178 435.6018 437.7623 442.20179 447.2423 450.60203 455.28514 457.44657 462.2463 464.64665">Figure 1.1</tspan></text>
<text xml:space="preserve" transform="matrix(1 0 -0 1 -143.43299 355.67604)" font-size="9.48" font-family="QJVOXC+Calibri"><tspan y="-613.07138" x="469.44825 472.33018 474.85188">): </tspan></text>
<text fill="#2c95ab" xml:space="preserve" transform="matrix(1 0 -0 1 -143.43299 355.67604)" font-size="8.04" font-family="NLBVNI+Wingdings-Regular"><tspan y="-594.36" x="120.48"></tspan></text>
<text xml:space="preserve" transform="matrix(1 0 -0 1 -143.43299 355.67604)" font-size="9.48" font-family="QJVOXC+Calibri"><tspan y="-594.36" x="138.36 143.04029 148.07985 152.76013 157.08301 164.6433 169.20317 172.92313 176.64308 178.80263 183.12267 187.80295 192.12583 194.28632 199.32588 203.28569 206.64635 211.32663 215.8865 219.60646 224.28675 228.60962 230.76917 235.80968 240.13256 244.09236 249.13193 256.69224 261.73274 266.77229 270.01255 272.05265 277.0922 281.53263 285.85554 290.89509 295.93559 302.77067 307.45094 310.69023 315.01313 319.57398 324.61354 329.65403 333.8537 338.8942 343.57353 347.53334 349.69383 351.8543 356.89387 361.57414 365.89704 368.05659 373.09709 377.41999 381.3798 386.4203 390.14024 393.37953 397.7024 402.7429 407.78245 412.4627 416.78559 419.90544 424.94593 429.2688 433.94813 438.0283 443.0688 448.10835 453.14884 457.82817 462.7492 465.9885 468.149 472.70887">The massive increase in computing power and decline in cost due to exponential</tspan><tspan y="-581.76107" x="138.36 140.5205 148.07984 153.12035 156.48006 161.52057 165.8406 170.51995 178.08023 182.76052 187.80008 191.04035 194.7603 197.64221 199.8027 204.84227 207.72418 211.68399 216.7245 224.28385 229.32436 234.24448 237.48474 239.64429 244.6848 249.12429 252.0062 256.9263 261.48619 264.8459 269.88639 276.72148 281.1619 284.5216 289.1963 292.07823 297.11778 301.79804 305.15776 308.0387 313.07826 316.43797 323.99827 328.55815 333.59864 337.55845 342.23689 344.6372 347.51914 352.5587 357.59825 365.1538 370.1934 374.75425 377.99543 380.15498 385.1955 389.63594 392.515 395.75529 400.79579 405.83537 410.39527 414.7153 417.47398 424.31477 426.4743 429.71458 434.75218 437.6341 442.43385 447.23454 452.03428 456.834 459.23435 461.99305 465.2333 470.27287 474.83363">improvements in computing hardware performance. Comparing today with 2006, the </tspan><tspan y="-569.0389" x="138.35053 142.31032 147.35083 151.07079 154.31105 156.23075 161.27031 164.15033 166.07004 170.62992 172.5496 176.991 180.35071 184.91059 189.8307 194.87122 197.03076 200.99152 204.71147 206.63495 211.67832 215.03803 220.07855 224.03835 228.71862 232.43856 236.1585 238.31804 243.35855 247.79804 249.72156 254.76493 259.68507 261.8446 265.08488 267.00459 269.88459 275.88545 280.80555 286.92585 288.84553 293.52864 295.4531 300.01298 301.9374 305.65736 310.6969 315.37718 319.33699 321.49748 326.05735 328.2169 330.37739 334.09733 338.7776 343.81715 345.74159 349.7014 354.74095 362.30125 367.34175 372.3813 375.62156 380.30088 383.66154 385.58125 389.54106 394.58155 396.74205 401.7816 403.7013 410.54206 412.7016 417.7421 422.42143 424.5819 428.90196 430.82167 435.86216 439.5821 444.14198 449.18247 451.10218 453.98219 459.02268 462.3824 464.3021 469.8223 472.10224">cost of a graphics processing unit (GPU – a specialised computer chip widely used for AI)</tspan><tspan y="-556.3167" x="138.3695 143.41287 148.09316 151.45287 153.6143 158.65482 163.69438 165.73448 168.97475 171.13619 176.17575 179.05577 181.21721 185.17702 190.21659 197.77687 202.81739 207.7375 210.97682 215.5367 218.77696 220.93746 225.85758 230.89145 233.05576 238.09532 242.6552 246.37136 248.41336 253.45293 258.13319 262.093 265.45365 270.13298 274.69383 278.41377 283.09403 288.13359 290.295 295.33457 299.65278 301.8142 309.3745 314.41407 317.77378 322.45405 324.61549 327.85575 332.8953 337.33573 342.3696 344.53105 349.33079 354.13053">per unit of computation has decreased by more than 99%</tspan><tspan y="-556.3168" x="360.9694">.</tspan></text>
<text xml:space="preserve" transform="matrix(1 0 -0 1 -143.43299 355.67604)" font-size="9.48" font-family="QJVOXC+Calibri"><tspan y="-540.6" x="138.36 143.04029 148.07985 152.76013 155.28182 159.9621 164.04228 169.08185 174.12236 179.16193 183.84221 188.88272 192.12204 194.28253 198.8424 201.00196 203.52364 205.68318 210.7237 214.6835 218.04322 222.7235 227.28337 231.00333 235.68361 238.20529 240.36579 245.40535 247.92704 251.16635 256.20686 260.88713 263.4088 267.9687 272.28874 276.8486 279.0091 281.16865 285.72853 290.769 292.9295 295.08906 297.24955 300.48884 304.80888 307.33058 311.89045 316.93 321.9705 324.4922 329.53269 334.57225 339.1321 341.2926 343.33177 346.57203 350.89207 353.41377 358.4533 361.3333 363.855 368.8955 373.45539 376.69566 381.25553 383.65589 388.69544 392.41539 397.09565 402.1352 404.6569 407.89717 412.9367 415.4584 418.69868 422.05839 426.61924 428.6584 433.69889 436.22059 441.74079 444.1411 446.6628 454.2231 459.26268 464.30317 468.98344 471.14299">The exponential increase in the availability and quality of data used to train AI models</tspan><tspan y="-527.8778" x="138.36 143.39957 148.44008 153.12036 155.27989 158.39977 163.44028 165.47847 168.71874 173.7583 178.43859 180.47678 183.83649 185.99698 189.71694 194.39627 196.55677 201.59633 204.47635 206.51454 209.7548 214.79532 219.35521 221.51856 223.91699 228.95658 232.19684 236.87996 240.12023 245.1598 249.84293 252.95423 255.11566 259.5561 264.59565 269.6352 271.79664 275.75645 280.67655 285.71705 290.7566 295.43687 299.39668 302.63694 304.79649 309.11653 311.277 314.51728 318.8402 321.12016 323.2816 327.84147 332.88105 337.5613 339.72276 344.28263 351.84294 356.8825 361.8026 366.8431 369.96205 372.12348 377.164 380.04405 382.0832 387.1237 391.68357 394.92384 399.3633 401.52476 406.56434 410.2843 414.96458 419.8847 422.04615 425.2864 430.20655 432.36799 435.4869 438.84757 443.40745 445.567 450.48713 452.64857 456.36854 459.60786 464.04829 467.2876 471.96119">due to the rise of the Internet and connectivity. The amount of data used to train state-</tspan><tspan y="-515.15567" x="138.36002 143.39958 146.27582 149.15775 152.39801 157.43758 162.1169 164.99881 169.55869 172.9184 176.15866 178.3201 183.84032 186.23972 188.40116 195.84105 200.88062 205.92113 210.60141 212.76096 216.48091 218.64235 223.68192 228.24179 231.96175 234.12319 236.28273 241.32324 245.28305 248.64276 253.32305 257.76347 261.4834 266.16368 271.20323 273.36466 278.4042 282.72425 284.88569 289.92524 294.6055 299.16539 302.5251 304.68559 309.0056 311.16706 315.9583 320.7552 322.91664 327.71638 332.51707 337.3168 339.47819 342.71846 344.878 352.4383 357.11857 360.8385 362.99995 366.71989 368.88038 373.91993 377.76029 382.4396 384.60105 389.4008 394.20054 399.00123 403.80097">of-the-art AI models has increased by nearly 30 000 times since 2008.</tspan></text>
<text xml:space="preserve" transform="matrix(1 0 -0 1 -143.43299 355.67604)" font-size="9.48" font-family="QJVOXC+Calibri"><tspan y="-499.56" x="138.36 143.51998 146.87969 151.55997 156.11985 160.43988 163.68015 168.71971 171.95998 177.00049 182.04006 186.48049 191.52005 195.12056 197.15876 199.3183 204.35881 206.2785 209.51877 214.55834 219.23862 221.27681 225.71724 229.07695 233.03676 238.07727 240.23682 243.47708 248.15737 252.11717 255.35744 260.27757 263.63728 268.31755 272.03749 274.07569 278.63557 283.6751 288.5952 290.63343 295.1933 297.3538 301.79328 306.83378 310.19349 312.23359 315.47386 320.5134 328.0737 331.79365 333.7143 338.75386 343.4341 348.47367 350.63417 355.6737 360.5938 362.63203 368.15223 370.43217 372.47038 380.03065 385.0702 390.10978 394.79008 396.95057 400.6705 403.07084 405.11 410.03013 415.07063 418.30995 422.75038 427.78996 429.95045 434.27049 436.1902 439.43046 444.47004 449.15034 451.19044 454.55015 456.71064 460.43058 465.11088 467.03059 472.07014 474.83073">Breakthroughs in the architectures and algorithms behind AI models, notably the rise of </tspan><tspan y="-486.83784" x="138.36 143.39957 148.07985 152.76013 157.7997 160.68161 165.72212 170.4024 175.44197 178.80168 183.3625 185.4026 188.28452 193.32503 198.00531 201.12519 207.96027 213.00078 216.36049 220.68053 224.28009 227.162 230.04108 233.75724 238.43752 242.40016 245.64043 247.79998 252.84049 257.88005 260.63304 265.43278 267.8331 272.63475 275.51667 277.9151 280.797 285.47727 290.5168 295.0767 300.1172 302.27674 304.43724 309.47679 313.9172 316.67686 319.9171 324.9576 329.63694 332.39753 337.43708 342.11735 346.43739 351.11766 353.2772 358.3177 363.35725 370.91755 375.5978 380.63737 383.87763 386.75956 391.7991 394.6791 397.56105 402.2413 406.32148 411.36103 416.28114 421.32164 426.00096 431.04145 434.2817 436.44126 441.00114 443.16163 445.32118 449.52177 452.4037 454.56324 459.1231 462.48377 466.92326 471.60353">deep neural networks (section 1.3), enabling the development of exponentially larger</tspan><tspan y="-474.11567" x="138.36 142.91988 147.96039 152.99996 155.39839 162.95868 167.99825 171.35796 176.03824 178.43668 182.39649 186.95636 191.99687 196.55675 201.59632 203.7568 208.43709 210.83553 218.39582 223.43538 228.47589 233.15618 235.31572 239.03568 241.43602 243.83446 248.51474 253.5543 258.23457 260.5145 265.07438 272.63468 277.67424 282.71473 287.75428 290.99455 293.27449 298.31498 301.19499 303.5934 307.55418 312.59373 320.15403 325.19358 330.23408 333.47737 337.9178 341.1571 343.3176 348.35719 353.39674 357.95756 360.1171 362.51554 367.43568 372.4762 379.1975 383.87779 387.23844 389.63688 394.67643 398.3973 403.07664 408.11714 410.51557 413.75486 418.79536 421.1938 424.31459 427.6743 432.23417 434.39466 439.4342 441.83265 445.4322 448.67247 453.23234 456.4726 461.154 464.03593 469.07548 471.95173">and more capable models. The amount of computational power used to train state-of-</tspan><tspan y="-461.3935" x="138.35056 141.59082 146.63039 151.30971 154.19162 158.7515 162.1112 165.35147 167.51291 172.91272 175.31307 177.4745 185.03479 190.07436 195.11487 199.79515 201.9547 205.67465 207.83609 212.87566 217.43553 221.15549 223.31693 225.47647 230.51699 234.47679 237.8365 242.51679 247.07666 250.79662 255.4769 260.397 262.55845 267.598 271.91804 274.07948 278.63935 281.99906 286.91917 291.9587 296.8788 301.9193 304.08076 308.86817 313.6679 318.47428 320.6357 325.43547 330.23616 335.0359 337.19355 340.4338 342.59336 350.15367 354.83393 358.55387 360.7153 364.43525 366.59574 371.63529 375.5951 380.27537 382.4368 387.2375 392.03724 396.83699 401.63768">the-art AI models has increased by around 350 000 times since 2014.</tspan></text>
<text xml:space="preserve" transform="matrix(1 0 -0 1 -143.43299 355.67604)" font-size="9.48" font-family="QJVOXC+Calibri"><tspan y="-445.67567" x="120.47127 125.15154 130.19112 134.8714 138.59136 143.27164 145.54683 150.1067 155.14722 159.46726 163.90674 168.94725 172.90706 177.58734 185.14669 189.82697 194.86748 198.1068 201.82675 204.10764 209.1472 213.70708 218.02712 222.7074 224.98259 227.14308 231.82242 236.74254 239.01773 242.13855 247.17812 249.45331 254.97353 257.37388 259.64909 267.20939 272.1295 277.16905 281.8493 284.00886 287.7288 290.00968 293.24897 298.16908 302.72895 305.9692 308.1297 312.68959 316.0493 320.72956 323.00477 328.04527 332.72459 336.6844 341.72489 349.2852 351.44474 356.48524 360.9247 363.0852 367.76454 372.08457 376.76484 380.1255 382.4007 389.96006 395.00056 398.36027 403.04054 405.31575 410.35624 415.27635 422.11143 426.79075 430.1514 433.0314 438.07096 440.23146 442.63179 444.90699 448.8668 453.42668 458.34678 462.90666 467.94715 470.1067 474.78697">These advancements have led to AI models that are becoming ever more powerful, capable </tspan><tspan y="-432.9535" x="120.47127 125.03115 130.07167 135.11124 136.7892 139.66922 141.82971 146.51 150.58925 152.74974 157.7893 159.9498 164.63008 167.02948 168.70745 171.10779 176.1483 177.82627 181.06653 186.1061 190.78638 192.46434 194.62389 199.18471 202.90467 206.14398 207.82195 210.70197 215.38225 222.21733 223.8953 228.21439 232.89467 237.45455 240.69481 244.41477 246.8151 248.49306 254.01328 256.4136 258.09159 263.13114 267.691 271.41096 273.08894 277.5284 282.44853 287.48808 292.16835 293.8463 296.72633 300.08699 305.12654 312.68684 314.3648 318.92469 320.60267 323.48268 325.64317 330.32344 332.48298 337.52348 339.20146 344.241 347.121 348.79899 353.35887 357.3196 361.8795 366.91905 371.5993 379.1596 381.31916 385.2799 386.9579 390.3176 394.99787 398.7178 403.39808 407.95796 411.31767 415.27748 420.31797 421.99595 425.2362 430.27577 431.95375 436.5136 441.5541 443.2321 445.39164 450.43214 455.35224 460.39179 464.11174 467.2325 470.59223 474.79188">and flexible. In the last few years, AI has gone from a field of academic research to an industry </tspan><tspan y="-420.35459" x="120.47127 125.51084 128.87149 131.03104 135.35108 137.51157 142.55113 146.99156 149.51325 154.43337 159.47388 164.51345 169.43357 172.79328 177.47356 182.51407 186.23403 188.7557 193.79622 196.6753 199.19698 204.23654 206.39704 208.55658 210.71707 212.87662 217.91713 222.9567 226.67665 229.19834 234.2379 237.11792 239.51827 244.55783 249.59835 251.75789 253.91838 258.47825 261.83796 265.5579 268.0796 273.11915 275.99916 278.52085 280.6804 285.7209 290.04093 294.72026 298.4402 301.68046 309.24076 313.92103 318.84114 322.0804 324.6021 329.162 334.20155 339.12165 344.16215 348.72203 350.88157 353.04206 357.3621 359.7615 364.32237 369.3619 374.4024 376.9241 383.7592 385.7993 389.03956 394.07344 396.5952 399.7151 403.0748 405.2353 407.39485 409.55534 411.71488 416.75538 421.79496 425.5149 428.0366 433.0771 435.95713 438.4788 443.51838 448.55888 450.7184 452.8789 457.4388 460.67909 464.39903 466.9207 471.96025 474.84028">driving hundreds of billions of dollars of investment annually and with trillions of dollars of </tspan><tspan y="-407.63243" x="120.47125 123.35127 125.51082 130.55133 135.1112 140.15077 144.11151 146.27106 150.83094 152.99143 155.15287 162.70842 167.2683 170.628 174.94803 179.62831 182.86858 185.03002 189.35005 193.90993 196.07042 201.10999 205.79125 207.95269 212.51256 215.75283 217.91426 221.51477 224.75504 229.31491 233.63495 238.31713 240.71556">financial market value at stake. </tspan></text>
<text xml:space="preserve" transform="matrix(1 0 -0 1 -143.43299 355.67604)" font-size="9.48" font-family="AVIJPD+ErasITC-Bold" font-weight="bold"><tspan y="-382.44" x="120.48 126.36045 129.35993 135.59777 141.83751 145.91771 151.55545 153.95389 160.07798 162.83666 168.96074">Figure 1.1 </tspan></text>
<g clip-path="url(#clip_9)">
<text fill="#2c95ab" xml:space="preserve" transform="matrix(1 0 -0 1 -143.43299 355.67604)" font-size="9" font-family="XOURZJ+CambriaMath"><tspan y="-382.44" x="171.36">⊳</tspan></text>
</g>
<text xml:space="preserve" transform="matrix(1 0 -0 1 -143.43299 355.67604)" font-size="9" font-family="IXUSPS+CenturyGothic-Bold" font-weight="bold"><tspan y="-382.44" x="177.96 191.39702 198.95702 203.99701 209.757 212.27701 218.037 223.797 232.3173 238.31671 243.7167 246.36 252.3603 255.1197 257.2797 263.0397 268.4397 270.9597 276.7197 282.4797 286.32 289.083 291.603 294.123 299.163 304.203 309.243 314.16603 318.009 323.049 328.08903 333.12904 338.16905 340.68904 343.209 349.20933 354.6093 360.6087 363.1287 368.5287 374.169 376.92933 382.80903 388.80934 390.96934 396.72935 399.24934 405.96873 408.4887 410.889 419.4093 425.1693 431.1687 436.80903 438.96903"> GPU computation cost, 2006-2024, and notable AI model </tspan><tspan y="-369.12" x="191.406 197.166 202.926 211.4463 217.44571 222.8457 225.4863 231.4857 234.246 236.406 242.166 247.44629 253.4457 255.6057 258.1257 260.88603 263.64634 269.64573 271.80574 277.20573 279.36573 284.76573 290.76603 293.286 297.1263 299.28633 303.48573 309.24574 311.76573 314.16603 319.20603 324.24604 329.28605 334.32606 338.16905 343.20906 348.24906 353.28907 358.32908">computational training size, 2014-2024 </tspan></text>
<g clip-path="url(#clip_10)">
</g>
<path transform="matrix(1,0,0,-1,-143.43299,355.67604)" d="M120.48 360.6H474.84V361.08003H120.48Z" fill="#959595" />
<g clip-path="url(#clip_11)">
<text fill="#959595" xml:space="preserve" transform="matrix(1 0 -0 1 -143.43299 355.67604)" font-size="6.96" font-family="QJVOXC+Calibri"><tspan y="-193.92" x="433.8 435.59986 438.96015 443.0401 444.83998 446.399 450.1184 453.83854 455.39756 459.2374 462.5977 464.1567 467.63673 469.43659 472.9166">IEA. CC BY 4.0.</tspan></text>
</g>
<g clip-path="url(#clip_12)">
<text fill="#959595" xml:space="preserve" transform="matrix(1 0 -0 1 -143.43299 355.67604)" font-size="6.96" font-family="QJVOXC+Calibri"><tspan y="-193.92" x="474.84"> </tspan></text>
</g>
<text fill="#2c95ab" xml:space="preserve" transform="matrix(1 0 -0 1 -143.43299 355.67604)" font-size="8.04" font-family="BMUUDB+CenturyGothic-BoldItalic" font-weight="bold" font-style="italic"><tspan y="-176.88" x="142.44 144.72016 149.52004 151.80339 154.20333 159.0032 164.16327 166.44663 171.72891 176.88899 180.4893 182.88924 185.17259 190.33266 195.49272 200.65279 205.93506 211.21735 216.25762 218.53777 220.82112 225.98119 230.66127 235.82134 241.1036 246.3859 251.54596 254.06569 256.34904 261.3893 266.5494 274.1094 279.3917 284.19157 286.5915 288.51145 293.3113 298.5936 300.83757 302.99879 308.15888 312.71916 317.8792 323.0393 327.83918 332.99928 337.79914 340.19908 342.11903 347.4013 349.32209 351.24205 355.8015 358.08488 365.64488 370.80497 373.3255 378.365 380.52534 385.80763 391.0899 393.48985 398.77214 401.05549 406.33778 411.13764 416.41993 418.70329 421.22303 426.38313 429.86366 435.02375 440.30604 442.82579 447.98588 452.78575">In the past decade, cheaper computing, exponentially more data and research </tspan><tspan y="-164.87628" x="156.11603 161.39832 163.91886 169.07892 174.3612 179.04129 181.44123 186.2411 188.76165 193.9209 198.72078 204.00305 208.80294 212.40325 214.6866 216.60655 221.28664 223.56598 231.12679 236.28685 241.44692 246.60617 248.52693 250.81029 256.09257 261.13206 264.73237 266.6523 271.9346 276.73448 278.894 283.69389 288.97618 293.53565 298.69575 300.9791 303.37904 308.1789 310.69865 315.98094 321.0212 326.1813 330.98118 336.26347 338.784 344.06629 349.22639 354.50868 356.669 362.66847 364.9486 367.10896 374.66896 379.82905 385.11134 390.27143 392.0716 394.35496 399.39524 404.67753 409.9598 415.2421 420.52439 422.44517 424.3651 426.28507 428.685 430.60496 435.76506 439.19639">breakthroughs in model design have turbocharged AI model capabilities </tspan></text>
<path transform="matrix(1,0,0,-1,-143.43299,355.67604)" d="M119.76 156.12H474.84V157.079H119.76Z" fill="#959595" />
<text xml:space="preserve" transform="matrix(1 0 -0 1 -143.43299 355.67604)" font-size="8.04" font-family="QJVOXC+Calibri"><tspan y="-145.32" x="120.48 124.20011 128.39699 132.59709 135.35723 138.71794 142.68166 145.79796 147.95832 149.75928 151.79982 155.75952 160.4396 162.24057 166.08048 170.27736 174.11727 175.91742 179.51773 182.63726 184.43741 187.55693 189.3579 193.55478 197.39469 200.5142 204.4739 208.67079 210.47176 214.67186 218.86875 220.67447 224.87456 228.71446 231.35158 235.19149 237.11304 239.50896 242.38889 246.58899 253.07567 254.87664 258.83634 263.0364 267.23329 270.594 274.79408 279.47416 281.51316 283.31413 285.71809 289.79838 293.75807 297.83757 301.91786 304.3146 306.35679 308.1577 311.99763 316.1945 320.39137 322.19557 326.51545 330.7123 334.31425 336.1152 340.0749 341.87583 345.71574 349.9158 354.11589 355.9168 360.95628 364.6764 371.15663 375.3567 377.997 382.19389 386.39497 388.19593 390.59989 394.68019 398.75968 402.83998 406.91947 409.31703 411.2386">Sources: IEA analysis based on data from EpochAI (2024), and Coyle and Hampton (2024). </tspan></text>
<path transform="matrix(.0050732,0,0,.0050739,8.319397,112.87059)" stroke-width="206.169" stroke-linecap="round" stroke-dasharray="0,412.338" stroke-linejoin="round" fill="none" stroke="#949494" d="M0 0H26125.715M0-4849.091H26125.715M0-9698.182H26125.715M0-14547.272H26125.715M0-19396.364H26125.715" />
<path transform="matrix(.0040849,0,0,.0040854,8.319397,137.4734)" stroke-width="51.21" stroke-linecap="butt" stroke-linejoin="round" fill="none" stroke="#000000" d="M0 0 32446.452 .016" />
<g clip-path="url(#clip_13)">
<path transform="matrix(.0055344,0,0,.0055351,8.269165,14.405182)" stroke-width="264.583" stroke-linecap="round" stroke-linejoin="round" fill="none" stroke="#e46c0a" d="M0 0 1342.571 13008.429 2667 18886.715 3991.428 20719.143 5334 20882.428 6658.429 20809.858 7982.857 21063.858 9325.429 21281.573 10649.857 21481.143 11974.286 21844 13316.857 21807.715 14641.286 21898.428 15965.714 21735.143 17308.286 21989.143 18632.715 22025.428 19957.143 22098 21299.715 22134.286 22624.143 22170.573 23948.573 22188.715" />
</g>
<g clip-path="url(#clip_14)">
<text xml:space="preserve" transform="matrix(.9999377 0 -0 1.0000622 -143.43299 355.67604)" font-size="8.83665" font-family="QJVOXC+Calibri"><tspan y="-240.33435" x="132.45355 136.87187 139.08103">0.2</tspan></text>
</g>
<g clip-path="url(#clip_15)">
<text xml:space="preserve" transform="matrix(.9999377 0 -0 1.0000622 -143.43299 355.67604)" font-size="8.83665" font-family="QJVOXC+Calibri"><tspan y="-264.93913" x="132.45355 136.87187 139.08103">0.4</tspan></text>
</g>
<g clip-path="url(#clip_16)">
<text xml:space="preserve" transform="matrix(.9999377 0 -0 1.0000622 -143.43299 355.67604)" font-size="8.83665" font-family="QJVOXC+Calibri"><tspan y="-289.54389" x="132.45355 136.87187 139.08103">0.6</tspan></text>
</g>
<g clip-path="url(#clip_17)">
<text xml:space="preserve" transform="matrix(.9999377 0 -0 1.0000622 -143.43299 355.67604)" font-size="8.83665" font-family="QJVOXC+Calibri"><tspan y="-314.14866" x="132.45355 136.87187 139.08103">0.8</tspan></text>
</g>
<g clip-path="url(#clip_18)">
<text xml:space="preserve" transform="matrix(.9999377 0 -0 1.0000622 -143.43299 355.67604)" font-size="8.83665" font-family="QJVOXC+Calibri"><tspan y="-338.75334" x="132.45355 136.87187 139.08103">1.0</tspan></text>
</g>
<g clip-path="url(#clip_19)">
<text xml:space="preserve" transform="matrix(.9999377 0 -0 1.0000622 -143.43299 355.67604)" font-size="8.83665" font-family="QJVOXC+Calibri"><tspan y="-206.98473" x="142.82431 147.24263 151.76169 156.18001">2006</tspan></text>
</g>
<g clip-path="url(#clip_20)">
<text xml:space="preserve" transform="matrix(.9999377 0 -0 1.0000622 -143.43299 355.67604)" font-size="8.83665" font-family="QJVOXC+Calibri"><tspan y="-206.98473" x="275.38508 279.8034 284.32249 288.7408">2024</tspan></text>
</g>
<g clip-path="url(#clip_21)">
<text xml:space="preserve" transform="matrix(.9999377 0 -0 1.0000622 -143.43299 355.67604)" font-size="8.83665" font-family="XEFZMO+Calibri-Bold" font-weight="bold"><tspan y="-347.0711" x="170.80245 176.42609 181.14574 186.86923 188.77794 192.49375 197.21341 204.44355 209.16233 213.88109 216.99335 221.41167 223.21962 226.93543 231.65419 235.16942 238.28256 240.19126 242.40042 247.1192 251.83797 256.2563">GPU compute cost index</tspan></text>
</g>
<g clip-path="url(#clip_22)">
<text xml:space="preserve" transform="matrix(0 -1.0000622 .9999377 0 -143.43299 355.67604)" font-size="8.83665" font-family="QJVOXC+Calibri"><tspan y="128.97205" x="284.69789 286.90705 291.52598 296.14576 300.56318 304.37886 306.28755 308.99867 313.51686 318.0359 322.55409 327.07316 328.7804 333.1987 335.1074 339.62556">Index (2006 = 1)</tspan></text>
</g>
<path transform="matrix(.0048097,0,0,.0048103,195.58408,112.56891)" stroke-width="217.466" stroke-linecap="round" stroke-dasharray="0,434.932" stroke-linejoin="round" fill="none" stroke="#949494" d="M0 0H25323.452M0-5114.795H25323.452M0-10208.713H25323.452M0-15302.631H25323.452M0-20396.549H25323.452" />
<path transform="matrix(-.0037555,-0,0,.003756,317.38145,137.07172)" stroke-width="55.702" stroke-linecap="butt" stroke-linejoin="round" fill="none" stroke="#000000" d="M0 0 32431.791 .018" />
<g clip-path="url(#clip_23)">
<path transform="matrix(.0052709,0,0,.0052715,317.4324,16.2128)" stroke-width="277.813" stroke-linecap="round" stroke-linejoin="round" fill="none" stroke="#4bacc6" d="M0 0-2305.051 17868.9-4629.15 22212.3-6934.2 22669.5-9239.25 22879.05-11563.351 22898.1-13868.4 22917.15-16173.45 22860-18497.55 22917.15H-20802.6-23107.65" />
</g>
<g clip-path="url(#clip_24)">
<text xml:space="preserve" transform="matrix(.9999377 0 -0 1.0000622 -143.43299 355.67604)" font-size="8.83665" font-family="QJVOXC+Calibri"><tspan y="-240.65413" x="306.6413 311.05964 315.57875 317.48747 322.00654 326.42488">70 000</tspan></text>
</g>
<g clip-path="url(#clip_25)">
<text xml:space="preserve" transform="matrix(.9999377 0 -0 1.0000622 -143.43299 355.67604)" font-size="8.83665" font-family="QJVOXC+Calibri"><tspan y="-265.1789" x="302.1895 306.60786 311.12696 315.5453 317.5512 321.96955 326.38789">140 000</tspan></text>
</g>
<g clip-path="url(#clip_26)">
<text xml:space="preserve" transform="matrix(.9999377 0 -0 1.0000622 -143.43299 355.67604)" font-size="8.83665" font-family="QJVOXC+Calibri"><tspan y="-289.70368" x="302.1895 306.60786 311.12696 315.5453 317.5512 321.96955 326.38789">210 000</tspan></text>
</g>
<g clip-path="url(#clip_27)">
<text xml:space="preserve" transform="matrix(.9999377 0 -0 1.0000622 -143.43299 355.67604)" font-size="8.83665" font-family="QJVOXC+Calibri"><tspan y="-314.22856" x="302.1895 306.60786 311.12696 315.5453 317.5512 321.96955 326.38789">280 000</tspan></text>
</g>
<g clip-path="url(#clip_28)">
<text xml:space="preserve" transform="matrix(.9999377 0 -0 1.0000622 -143.43299 355.67604)" font-size="8.83665" font-family="QJVOXC+Calibri"><tspan y="-338.75334" x="302.1895 306.60786 311.12696 315.5453 317.5512 321.96955 326.38789">350 000</tspan></text>
</g>
<g clip-path="url(#clip_29)">
</g>
<g clip-path="url(#clip_30)">
<text xml:space="preserve" transform="matrix(.9999377 0 -0 1.0000622 -143.43299 355.67604)" font-size="8.83665" font-family="QJVOXC+Calibri"><tspan y="-207.38439" x="330.13737 334.5557 339.0748 343.49314">2014</tspan></text>
</g>
<g clip-path="url(#clip_31)">
<text xml:space="preserve" transform="matrix(.9999377 0 -0 1.0000622 -143.43299 355.67604)" font-size="8.83665" font-family="XEFZMO+Calibri-Bold" font-weight="bold"><tspan y="-347.0711" x="347.98249 355.71455 360.43418 365.15296 369.5713 371.78047 373.68919 376.80235 379.91285 384.23045 386.4396 391.1584 393.36848 398.08723 402.30497 404.11296 407.62727 409.83644 413.35163 417.76997 419.67869 421.88789 426.60664 431.3254 435.74375">Model training size index</tspan></text>
</g>
<g clip-path="url(#clip_32)">
<text xml:space="preserve" transform="matrix(0 -1.0000622 .9999377 0 -143.43299 355.67604)" font-size="8.83665" font-family="QJVOXC+Calibri"><tspan y="297.67866" x="285.64256 287.85169 292.4706 297.0904 301.5078 305.3235 307.23219 309.9433 314.4615 318.98057 323.49873 328.0178 329.72505 334.14335 336.05204 340.57023">Index (2014 = 1)</tspan></text>
</g>
<path transform="matrix(.0053368,0,0,.0053374,7.0140688,14.35498)" stroke-width="156.79" stroke-linecap="round" stroke-dasharray="0,313.58" stroke-miterlimit="8" stroke-linejoin="miter" fill="none" stroke="#949494" d="M0 0 23890.413 21891.995" />
<g clip-path="url(#clip_33)">
<path transform="matrix(.0054685,0,0,.0054692,135.58997,128.78514)" d="M0 0 366.699 958.699-620.277 676.84Z" fill="#949494" fill-rule="evenodd" />
<path transform="matrix(.0013836,0,0,.0013838,51.5961,66.47443)" d="M0 0H29028.573V12337.143H0Z" fill="#ffffff" fill-rule="evenodd" />
</g>
<g clip-path="url(#clip_34)">
<text xml:space="preserve" transform="matrix(.9999351 0 -0 1.000065 -143.43299 355.67604)" font-size="9.2383" font-family="NLBVNI+Aptos-Narrow"><tspan y="-277.60676" x="205.49535">-</tspan></text>
</g>
<g clip-path="url(#clip_35)">
<text xml:space="preserve" transform="matrix(.9999351 0 -0 1.000065 -143.43299 355.67604)" font-size="9.2383" font-family="NLBVNI+Aptos-Narrow"><tspan y="-277.60676" x="208.30704 213.0278 217.74857">99%</tspan></text>
</g>
<path transform="matrix(.0050732,0,0,-.0050739,194.27875,134.7753)" stroke-width="164.935" stroke-linecap="round" stroke-dasharray="0,329.87" stroke-miterlimit="8" stroke-linejoin="miter" fill="none" stroke="#949494" d="M0 0 23240.594 22799.698" />
<g clip-path="url(#clip_36)">
<path transform="matrix(.005205,0,0,-.0052056,313.34446,21.472168)" d="M0 0 350.756 1019.771-675.514 688.516Z" fill="#949494" fill-rule="evenodd" />
<path transform="matrix(.0029649,0,0,.0029652,208.03491,66.27359)" d="M0 0H32173.334V5757.333H0Z" fill="#ffffff" fill-rule="evenodd" />
</g>
<g clip-path="url(#clip_37)">
<text xml:space="preserve" transform="matrix(.9999351 0 -0 1.000065 -143.43299 355.67604)" font-size="9.2383" font-family="NLBVNI+Aptos-Narrow"><tspan y="-277.76799" x="371.2781 374.99375 379.7145 384.43528 389.15605 390.76258 395.48335 400.2041 404.92488 406.4307 409.14213 411.24845 418.47834 422.99586">x350 000 times</tspan></text>
</g>
<g ns1:groupmode="layer" ns1:label="Watermark">
<g clip-path="url(#clip_38)">
<text fill-opacity=".199997" xml:space="preserve" transform="matrix(0 -1 1 0 -39.9144 232.36304)" font-size="6" font-family="Arial"><tspan y="4.737" x="0 1.6680002 5.6700007 9.672001 11.340001 13.005001 17.337002 21.669003 23.337002 27.339003 31.341004 33.009004 36.345 38.013 41.349">IEA. CC BY 4.0.</tspan></text>
</g>
</g>
</g>
</g>
</svg>